<svg width="47" height="47" viewBox="0 0 47 47" fill="none" xmlns="http://www.w3.org/2000/svg">
<path d="M46.2656 8.07812C46.2656 4.02878 42.9712 0.734375 38.9219 0.734375H38.6178L35.9844 3.36784L34.5156 1.89909L31.2741 5.14062L32.7428 6.60938L27.2005 12.1517C26.1438 11.435 24.8703 11.0156 23.5 11.0156C22.1297 11.0156 20.8563 11.435 19.7995 12.1517L14.2572 6.60938L15.7259 5.14062L12.4844 1.89909L11.0156 3.36784L8.38216 0.734375H8.07812C4.02878 0.734375 0.734375 4.02878 0.734375 8.07812V8.38216L3.36784 11.0156L1.89909 12.4844L5.14062 15.7259L6.60938 14.2572L13.2188 20.8665L15.4219 18.6634L17.216 20.4575L11.75 25.3763V40.5265C10.8974 40.8305 10.2812 41.6383 10.2812 42.5945V44.0632C10.2812 45.2779 11.2697 46.2664 12.4844 46.2664H34.5156C35.7303 46.2664 36.7188 45.2779 36.7188 44.0632V42.5945C36.7188 41.6383 36.1026 40.8305 35.25 40.5265V25.3763L29.784 20.4575L31.5781 18.6634L33.7812 20.8665L40.3906 14.2572L41.8594 15.7259L45.1009 12.4844L43.6322 11.0156L46.2656 8.38216V8.07812ZM32.2236 12.4844C32.1194 12.4844 32.0165 12.5013 31.913 12.5152L30.4134 11.0156L31.5781 9.85091L37.1491 15.4219L35.9844 16.5866L34.4855 15.087C34.4995 14.9842 34.5156 14.8821 34.5156 14.7764C34.5156 13.5125 33.4875 12.4844 32.2236 12.4844ZM33.7812 37.4531H31.5781C31.1728 37.4531 30.8438 37.1234 30.8438 36.7188V33.7812C30.8438 33.3766 31.1728 33.0469 31.5781 33.0469H33.7812V37.4531ZM33.7812 31.5781H31.5781C30.3635 31.5781 29.375 32.5666 29.375 33.7812V36.7188C29.375 37.9334 30.3635 38.9219 31.5781 38.9219H33.7812V40.3906H13.2188V38.9219H15.4219C16.6365 38.9219 17.625 37.9334 17.625 36.7188V33.7812C17.625 32.5666 16.6365 31.5781 15.4219 31.5781H13.2188V30.1094H33.7812V31.5781ZM13.2188 37.4531V33.0469H15.4219C15.8272 33.0469 16.1562 33.3766 16.1562 33.7812V36.7188C16.1562 37.1234 15.8272 37.4531 15.4219 37.4531H13.2188ZM33.7812 28.6406H13.2188V27.1719H33.7812V28.6406ZM13.5823 25.7031L18.1956 21.551C19.4007 23.1754 21.3263 24.2344 23.5 24.2344C25.6737 24.2344 27.5993 23.1754 28.8044 21.551L33.4177 25.7031H13.5823ZM12.4844 14.7764C12.4844 14.8821 12.5005 14.9842 12.5145 15.087L11.0156 16.5866L9.85091 15.4219L15.4219 9.85091L16.5866 11.0156L15.0863 12.5152C14.9835 12.5013 14.8806 12.4844 14.7764 12.4844C13.5125 12.4844 12.4844 13.5125 12.4844 14.7764ZM17.7006 14.4591L16.4603 13.2188L17.625 12.054L18.684 13.113C18.3036 13.5184 17.9694 13.9678 17.7006 14.4591ZM14.7764 13.9531C14.993 13.9531 15.2052 14.0412 15.3587 14.194L17.1139 15.9499C16.9729 16.486 16.8906 17.0456 16.8906 17.625C16.8906 17.7778 16.9031 17.9276 16.9134 18.0781L14.194 15.3587C14.0383 15.203 13.9531 14.9967 13.9531 14.7764C13.9531 14.3225 14.3225 13.9531 14.7764 13.9531ZM28.316 13.113L29.375 12.054L30.5397 13.2188L29.2994 14.4591C29.0306 13.9678 28.6964 13.5184 28.316 13.113ZM29.8861 15.9499L31.6413 14.194C31.7948 14.0412 32.007 13.9531 32.2236 13.9531C32.6775 13.9531 33.0469 14.3225 33.0469 14.7764C33.0469 14.9967 32.9617 15.203 32.806 15.3587L30.0866 18.0781C30.0969 17.9276 30.1094 17.7778 30.1094 17.625C30.1094 17.0456 30.0271 16.486 29.8861 15.9499ZM28.6406 17.625C28.6406 20.4597 26.334 22.7656 23.5 22.7656C20.666 22.7656 18.3594 20.4597 18.3594 17.625C18.3594 14.7903 20.666 12.4844 23.5 12.4844C26.334 12.4844 28.6406 14.7903 28.6406 17.625ZM2.21047 7.78144C2.36102 4.77784 4.77711 2.36102 7.78144 2.2112L9.97722 4.40625L4.40625 9.97722L2.21047 7.78144ZM3.97591 12.4844L12.4844 3.97591L13.6491 5.14062L5.14062 13.6491L3.97591 12.4844ZM13.2188 7.64778L14.3835 8.8125L8.8125 14.3835L7.64778 13.2188L13.2188 7.64778ZM13.2188 18.7897L12.054 17.625L13.2188 16.4603L14.3835 17.625L13.2188 18.7897ZM35.25 44.0625C35.25 44.4671 34.921 44.7969 34.5156 44.7969H12.4844C12.079 44.7969 11.75 44.4671 11.75 44.0625V42.5938C11.75 42.1891 12.079 41.8594 12.4844 41.8594H34.5156C34.921 41.8594 35.25 42.1891 35.25 42.5938V44.0625ZM32.6165 17.625L33.7812 16.4603L34.946 17.625L33.7812 18.7897L32.6165 17.625ZM38.1875 14.3835L32.6165 8.8125L33.7812 7.64778L39.3522 13.2188L38.1875 14.3835ZM41.8594 13.6491L33.3509 5.14062L34.5156 3.97591L43.0241 12.4844L41.8594 13.6491ZM42.5938 9.97722L37.0228 4.40625L39.2186 2.21047C42.2229 2.36028 44.639 4.77711 44.7895 7.7807L42.5938 9.97722Z" fill="black"/>
<path d="M21.2969 38.9219H25.7031C26.9178 38.9219 27.9062 37.9334 27.9062 36.7188V33.7812C27.9062 32.5666 26.9178 31.5781 25.7031 31.5781H21.2969C20.0822 31.5781 19.0938 32.5666 19.0938 33.7812V36.7188C19.0938 37.9334 20.0822 38.9219 21.2969 38.9219ZM20.5625 33.7812C20.5625 33.3766 20.8915 33.0469 21.2969 33.0469H25.7031C26.1085 33.0469 26.4375 33.3766 26.4375 33.7812V36.7188C26.4375 37.1234 26.1085 37.4531 25.7031 37.4531H21.2969C20.8915 37.4531 20.5625 37.1234 20.5625 36.7188V33.7812Z" fill="black"/>
<path d="M23.5 21.2969C25.5247 21.2969 27.1719 19.6497 27.1719 17.625C27.1719 15.6003 25.5247 13.9531 23.5 13.9531C21.4753 13.9531 19.8281 15.6003 19.8281 17.625C19.8281 19.6497 21.4753 21.2969 23.5 21.2969ZM23.5 15.4219C24.7147 15.4219 25.7031 16.4103 25.7031 17.625C25.7031 18.8397 24.7147 19.8281 23.5 19.8281C22.2853 19.8281 21.2969 18.8397 21.2969 17.625C21.2969 16.4103 22.2853 15.4219 23.5 15.4219Z" fill="black"/>
</svg>
