<svg width="47" height="47" viewBox="0 0 47 47" fill="none" xmlns="http://www.w3.org/2000/svg">
<g clip-path="url(#clip0)">
<path d="M7.83327 22.7166C3.50699 22.7166 0 26.2239 0 30.5498C0 34.8761 3.50699 38.3831 7.83327 38.3831C12.1595 38.3831 15.6665 34.8761 15.6665 30.5498C15.662 26.2258 12.1576 22.7215 7.83327 22.7166ZM7.83327 36.8164C4.37217 36.8164 1.56665 34.0109 1.56665 30.5498C1.56665 27.0891 4.37217 24.2832 7.83327 24.2832C11.2944 24.2832 14.0999 27.0891 14.0999 30.5498C14.0961 34.0094 11.2925 36.8126 7.83327 36.8164Z" fill="black"/>
<path d="M7.83341 27.4167C6.10304 27.4167 4.70007 28.8197 4.70007 30.5501C4.70007 32.2808 6.10304 33.6834 7.83341 33.6834C9.56378 33.6834 10.9667 32.2808 10.9667 30.5501C10.9667 28.8197 9.56378 27.4167 7.83341 27.4167ZM7.83341 32.1167C6.96822 32.1167 6.26674 31.4156 6.26674 30.5501C6.26674 29.6849 6.96822 28.9834 7.83341 28.9834C8.69859 28.9834 9.40007 29.6849 9.40007 30.5501C9.40007 31.4156 8.69859 32.1167 7.83341 32.1167Z" fill="black"/>
<path d="M39.1664 22.7166C38.2484 22.7185 37.3377 22.883 36.4771 23.2023L35.799 21.7925C36.7785 21.415 37.8139 21.2035 38.8631 21.1656C38.9369 21.1656 39.0088 21.1549 39.0834 21.1541C40.6382 21.1373 42.1727 21.5083 43.5485 22.2335C43.9306 22.4301 44.3999 22.2821 44.5999 21.9015C44.8 21.5209 44.6562 21.0505 44.2775 20.847C42.7143 20.0243 40.9744 19.594 39.2081 19.5936C39.1932 19.5936 39.1813 19.5852 39.1664 19.5852C39.1388 19.5852 39.1132 19.5852 39.088 19.5852C38.9487 19.5852 38.8099 19.6001 38.6707 19.6062C37.4517 19.6586 36.2503 19.916 35.1166 20.3666L33.8349 17.698C34.5479 17.9122 35.2888 18.0197 36.0331 18.0166C36.4657 18.0166 36.8164 17.6663 36.8164 17.2333V10.9667C36.8164 10.5341 36.4657 10.1834 36.0331 10.1834C34.1968 10.0889 32.4178 10.8389 31.2038 12.2201L29.688 9.06115C29.558 8.78996 29.2838 8.61746 28.9831 8.6167H24.2832C23.8506 8.6167 23.4998 8.96744 23.4998 9.40003C23.4998 9.833 23.8506 10.1834 24.2832 10.1834H28.4905L29.6184 12.5333H23.2241C21.1269 12.536 19.2355 13.794 18.4224 15.7271C18.2904 15.6892 18.1539 15.6689 18.0166 15.6666H5.48332C3.75296 15.6666 2.35001 17.0696 2.35001 18.7999C2.35383 19.6211 2.99105 20.3001 3.80995 20.3559C2.83156 20.738 1.91321 21.2601 1.08399 21.9053C0.743193 22.1719 0.68276 22.6642 0.949352 23.005C1.21594 23.3458 1.7082 23.4062 2.04938 23.1396C4.88167 20.9289 8.72678 20.5257 11.9561 22.1019C15.185 23.6778 17.2336 26.9568 17.2332 30.5499V31.5818C17.1399 32.1792 17.2975 32.7885 17.6689 33.2659C17.9726 33.5539 18.3814 33.705 18.7999 33.6832H27.4165C28.0438 33.6973 28.65 33.4544 29.0937 33.0104C29.5373 32.5667 29.7806 31.9608 29.7665 31.3332V30.5499C29.7649 28.9985 30.1501 27.4709 30.8868 26.1054C30.9384 26.009 30.9977 25.9199 31.0528 25.8258C31.7435 24.6424 32.6829 23.6231 33.8063 22.8382C33.846 22.8107 33.8843 22.7793 33.9221 22.7529C34.0136 22.691 34.1115 22.6393 34.2048 22.5812C34.2652 22.5437 34.3268 22.5077 34.388 22.4706L35.0681 23.887C31.7504 25.9405 30.4545 30.1261 32.0323 33.695C33.6097 37.2636 37.5772 39.1228 41.3289 38.0515C45.0807 36.9802 47.4682 33.3064 46.9235 29.4426C46.3785 25.5791 43.0681 22.7089 39.1664 22.7166ZM32.1164 14.1C32.1164 12.9862 33.4865 12.0242 35.2497 11.7997V16.4006C34.2958 16.313 33.3951 15.9233 32.6779 15.2884L32.1203 14.1268C32.1203 14.1176 32.1164 14.1088 32.1164 14.1ZM23.2241 14.1H30.0656L32.4155 18.7999H20.6423C20.0575 18.7996 19.5836 18.3257 19.5832 17.7412C19.5855 15.7313 21.2141 14.1023 23.2241 14.1ZM5.48332 17.2333H18.0166V18.7999H3.91666C3.91666 17.9348 4.61814 17.2333 5.48332 17.2333ZM28.1998 31.3332C28.212 31.5447 28.1333 31.7509 27.9837 31.9008C27.8341 32.0503 27.6276 32.1287 27.4165 32.1165H18.806C18.793 31.9796 18.7961 31.7681 18.7976 31.6013L18.7999 30.5499C18.8071 26.0599 16.0686 22.0212 11.8941 20.3666H18.0166C18.4403 20.3662 18.8458 20.1937 19.1399 19.8881C19.5794 20.1991 20.1041 20.3662 20.6423 20.3666H33.3783L33.7072 21.052C33.6383 21.0922 33.571 21.1354 33.5029 21.1767C33.3461 21.27 33.1897 21.3576 33.0401 21.4578L33.0252 21.4697C32.79 21.6265 32.5613 21.8002 32.3375 21.978C32.2664 21.9524 32.1918 21.9375 32.1164 21.9333H21.9332C21.3002 21.9344 20.6939 22.1903 20.2518 22.6431C19.8096 23.0964 19.5687 23.7084 19.5832 24.3414V25.0088C19.5687 25.6418 19.8096 26.2538 20.2518 26.707C20.6939 27.1599 21.3002 27.4158 21.9332 27.4165H28.6618C28.5111 27.9298 28.3983 28.4535 28.3253 28.9832H23.4998C23.0673 28.9832 22.7165 29.3339 22.7165 29.7665C22.7165 30.1995 23.0673 30.5499 23.4998 30.5499H28.1998V31.3332ZM29.5064 25.3668C29.493 25.3909 29.4765 25.4139 29.4631 25.4387C29.4563 25.4521 29.457 25.467 29.4509 25.4812C29.3882 25.6017 29.3316 25.7271 29.2731 25.8499H21.9332C21.7163 25.8468 21.5098 25.7554 21.3621 25.5967C21.2141 25.438 21.1376 25.2253 21.1499 25.0088V24.3414C21.1376 24.1249 21.2141 23.9122 21.3621 23.7535C21.5098 23.5948 21.7163 23.503 21.9332 23.4999H30.7716C30.3738 23.9788 30.0174 24.4902 29.706 25.0291C29.6402 25.145 29.5683 25.2509 29.5064 25.3668ZM39.1664 36.8165C36.3907 36.8207 33.9439 34.9974 33.1541 32.3364C32.3643 29.6755 33.4203 26.8126 35.7489 25.3018L37.132 28.1846C35.9876 29.2016 35.7753 30.9098 36.6355 32.1762C37.4961 33.4426 39.1622 33.8748 40.5296 33.1856C41.8966 32.4967 42.541 30.9006 42.035 29.4556C41.529 28.0105 40.0296 27.1649 38.5311 27.4793L37.1572 24.6171C39.511 23.8166 42.1157 24.4833 43.7952 26.3169C45.4751 28.1502 45.9119 30.8031 44.909 33.0781C43.9057 35.3531 41.6529 36.8199 39.1664 36.8165ZM39.1664 28.9832C40.0316 28.9832 40.733 29.6847 40.733 30.5499C40.733 31.4154 40.0316 32.1165 39.1664 32.1165C38.3012 32.1165 37.5997 31.4154 37.5997 30.5499C37.6009 30.2098 37.7145 29.8794 37.9225 29.6101C38.0556 29.7099 38.2167 29.7646 38.3831 29.7665C38.59 29.7669 38.7889 29.6839 38.9346 29.537C39.0803 29.3898 39.161 29.1905 39.1595 28.9832H39.1664Z" fill="black"/>
</g>
<defs>
<clipPath id="clip0">
<rect width="47" height="47" fill="white"/>
</clipPath>
</defs>
</svg>
