<svg width="48" height="48" viewBox="0 0 48 48" fill="none" xmlns="http://www.w3.org/2000/svg">
<g clip-path="url(#clip0)">
<path d="M40.9567 20.2475H26.5535V18.7314H27.7406L31.4946 12.4744C32.229 11.2499 32.618 9.84745 32.618 8.41942C32.618 4.0735 29.0824 0.537842 24.7364 0.537842H23.8229C19.4763 0.537842 15.9406 4.0735 15.9406 8.41942C15.9406 9.84745 16.3296 11.2499 17.0633 12.4751L20.8181 18.7314H22.0051V20.2475H7.60189C6.3482 20.2475 5.3277 21.268 5.3277 22.5217V45.2636C5.3277 46.5173 6.3482 47.5378 7.60189 47.5378H40.9567C42.2104 47.5378 43.2309 46.5173 43.2309 45.2636V22.5217C43.2309 21.268 42.2104 20.2475 40.9567 20.2475ZM28.0696 46.0217H25.0374V38.4411H29.5858V33.8927H32.618V27.8282H26.5535V24.7959H38.6825V32.3766H35.6503V36.9249H32.618V41.4733H28.0696V46.0217ZM31.1019 8.41942C31.1019 8.928 31.0305 9.42992 30.9116 9.91963C28.3147 8.91357 26.5535 6.39989 26.5535 3.5701V2.32159C29.1801 3.1063 31.1019 5.54114 31.1019 8.41942ZM22.0051 2.32159V3.5701C22.0051 6.39989 20.2439 8.91357 17.647 9.91963C17.5282 9.42992 17.4567 8.928 17.4567 8.41942C17.4567 5.54114 19.3785 3.1063 22.0051 2.32159ZM18.3632 11.6949C18.2944 11.5797 18.2429 11.4569 18.1815 11.3388C21.3636 10.1106 23.5212 7.03432 23.5212 3.5701V2.06915C23.6219 2.06471 23.7208 2.05397 23.8222 2.05397H24.7357C24.8379 2.05397 24.9367 2.06471 25.0374 2.06915V3.5701C25.0374 7.03432 27.195 10.1106 30.3771 11.338C30.3157 11.4561 30.2642 11.579 30.1954 11.6941L26.8826 17.2153H21.6768L18.3632 11.6949ZM25.0374 18.7314V27.8282H23.5212V18.7314H25.0374ZM22.0051 27.8282H18.9729V24.7959H22.0051V27.8282ZM6.84383 45.2636V22.5217C6.84383 22.1042 7.18362 21.7636 7.60189 21.7636H22.0051V23.2798H17.4567V29.3443H31.1019V32.3766H28.0696V36.9249H23.5212V46.0217H7.60189C7.18362 46.0217 6.84383 45.6819 6.84383 45.2636ZM41.7148 45.2636C41.7148 45.6819 41.375 46.0217 40.9567 46.0217H29.5858V42.9895H34.1341V38.4411H37.1664V33.8927H40.1987V23.2798H26.5535V21.7636H40.9567C41.375 21.7636 41.7148 22.1042 41.7148 22.5217V45.2636Z" fill="black"/>
<path d="M8.35995 29.3443H15.9406V23.2798H8.35995V29.3443ZM9.87608 24.7959H14.4245V27.8282H9.87608V24.7959Z" fill="black"/>
<path d="M8.35995 44.5055H14.4245V30.8604H8.35995V44.5055ZM9.87608 42.9894V41.4733H12.9083V42.9894H9.87608ZM12.9083 38.441V39.9571H9.87608V38.441H12.9083ZM9.87608 36.9249V35.4087H12.9083V36.9249H9.87608ZM12.9083 32.3765V33.8926H9.87608V32.3765H12.9083Z" fill="black"/>
</g>
<defs>
<clipPath id="clip0">
<rect width="47" height="47" fill="white" transform="translate(0.779297 0.537842)"/>
</clipPath>
</defs>
</svg>
